<svg xmlns="http://www.w3.org/2000/svg" xmlns:xlink="http://www.w3.org/1999/xlink" width="1080" zoomAndPan="magnify" viewBox="0 0 810 809.999993" height="1080" preserveAspectRatio="xMidYMid meet" version="1.0"><defs><clipPath id="74534ab48d"><path d="M 179.625 437 L 487 437 L 487 603.257812 L 179.625 603.257812 Z M 179.625 437 " clip-rule="nonzero"/></clipPath><clipPath id="235c08e226"><path d="M 301 175.007812 L 607.875 175.007812 L 607.875 341 L 301 341 Z M 301 175.007812 " clip-rule="nonzero"/></clipPath><clipPath id="af45fb319c"><path d="M 179.625 175.007812 L 346 175.007812 L 346 482 L 179.625 482 Z M 179.625 175.007812 " clip-rule="nonzero"/></clipPath><clipPath id="999810401e"><path d="M 442 296 L 607.875 296 L 607.875 603.257812 L 442 603.257812 Z M 442 296 " clip-rule="nonzero"/></clipPath></defs><g clip-path="url(#74534ab48d)"><path fill="#fd4a08" d="M 486.574219 449.964844 C 486.574219 461.933594 485.121094 473.902344 482.324219 485.535156 C 481.988281 486.65625 481.875 487.886719 481.539062 489.003906 C 481.539062 489.117188 481.539062 489.117188 481.539062 489.117188 C 474.828125 514.507812 461.628906 538.449219 441.71875 558.359375 C 425.832031 574.242188 407.488281 585.878906 387.800781 593.261719 C 387.800781 593.261719 387.6875 593.261719 387.6875 593.371094 C 370.238281 599.972656 351.667969 603.328125 333.101562 603.328125 C 295.179688 603.328125 257.367188 589.457031 227.835938 561.492188 C 226.71875 560.484375 225.710938 559.367188 224.59375 558.359375 C 223.585938 557.242188 222.46875 556.234375 221.460938 555.117188 C 193.609375 525.582031 179.625 487.773438 179.625 449.851562 C 179.625 445.824219 179.847656 441.6875 180.074219 437.660156 C 186 445.9375 192.710938 453.878906 200.09375 461.261719 C 224.371094 485.535156 253.675781 501.757812 284.773438 510.035156 C 284.886719 510.035156 284.886719 510.148438 285 510.148438 C 294.84375 512.71875 304.796875 514.507812 314.867188 515.515625 C 316.992188 515.738281 319.117188 515.851562 321.242188 515.964844 C 325.15625 516.1875 328.960938 516.300781 332.875 516.300781 C 332.988281 516.300781 332.988281 516.300781 333.101562 516.300781 C 343.726562 516.300781 354.355469 515.402344 364.867188 513.613281 C 375.382812 511.824219 385.785156 509.027344 395.964844 505.449219 C 397.195312 505 398.539062 504.554688 399.769531 504.105469 C 423.820312 494.933594 446.417969 480.613281 465.878906 461.261719 C 473.261719 453.878906 479.976562 445.9375 485.902344 437.660156 C 486.015625 439.339844 486.238281 441.128906 486.238281 442.917969 C 486.460938 445.265625 486.574219 447.617188 486.574219 449.964844 Z M 486.574219 449.964844 " fill-opacity="1" fill-rule="nonzero"/></g><g clip-path="url(#235c08e226)"><path fill="#fd4a08" d="M 607.945312 328.371094 C 607.945312 332.398438 607.722656 336.535156 607.496094 340.5625 C 601.570312 332.285156 594.855469 324.34375 587.472656 316.960938 C 563.199219 292.6875 533.890625 276.464844 502.792969 268.1875 C 502.683594 268.1875 502.683594 268.078125 502.570312 268.078125 C 490.824219 264.945312 478.746094 263.042969 466.664062 262.261719 C 462.636719 262.035156 458.609375 261.925781 454.582031 261.925781 C 451.785156 261.925781 448.878906 262.035156 446.082031 262.148438 C 442.390625 262.371094 438.699219 262.597656 435.007812 263.042969 C 432.546875 263.265625 430.085938 263.601562 427.625 263.9375 C 426.394531 264.160156 425.164062 264.273438 423.933594 264.496094 C 423.371094 264.609375 422.8125 264.609375 422.253906 264.722656 C 422.140625 264.722656 422.03125 264.722656 421.917969 264.832031 C 421.359375 264.945312 420.800781 265.058594 420.242188 265.167969 C 419.011719 265.390625 417.78125 265.617188 416.550781 265.839844 C 415.320312 266.0625 414.089844 266.398438 412.859375 266.621094 C 412.1875 266.734375 411.628906 266.957031 411.066406 267.070312 C 410.730469 267.183594 410.398438 267.183594 410.171875 267.292969 C 409.835938 267.40625 409.613281 267.40625 409.277344 267.519531 C 408.046875 267.851562 406.816406 268.078125 405.585938 268.414062 C 404.132812 268.859375 402.566406 269.195312 401.113281 269.644531 C 401 269.753906 400.777344 269.753906 400.664062 269.753906 C 400.554688 269.867188 400.441406 269.867188 400.328125 269.867188 C 400.21875 269.867188 400.21875 269.867188 400.105469 269.980469 C 400.105469 269.980469 399.992188 269.980469 399.992188 269.980469 C 399.769531 270.089844 399.433594 270.089844 399.210938 270.203125 C 399.097656 270.203125 398.988281 270.3125 398.875 270.3125 C 398.761719 270.3125 398.652344 270.425781 398.539062 270.425781 C 397.867188 270.648438 397.085938 270.875 396.414062 271.097656 C 395.742188 271.320312 395.183594 271.542969 394.511719 271.769531 C 394.402344 271.769531 394.289062 271.878906 394.175781 271.878906 C 393.839844 271.992188 393.503906 272.105469 393.28125 272.214844 C 392.945312 272.328125 392.609375 272.441406 392.386719 272.550781 C 392.050781 272.664062 391.828125 272.773438 391.492188 272.886719 C 390.261719 273.335938 389.144531 273.78125 388.023438 274.117188 C 363.972656 283.289062 341.378906 297.609375 322.027344 316.960938 C 314.644531 324.34375 307.929688 332.285156 302.003906 340.5625 C 301.890625 338.886719 301.777344 337.097656 301.667969 335.417969 C 301.554688 333.070312 301.554688 330.832031 301.554688 328.484375 C 301.554688 326.804688 301.667969 325.238281 301.667969 323.5625 C 302.003906 313.046875 303.457031 302.53125 305.917969 292.238281 C 306.140625 291.234375 306.363281 290.226562 306.589844 289.21875 C 306.589844 289.21875 306.589844 289.105469 306.589844 289.105469 C 313.300781 263.714844 326.5 239.777344 346.410156 219.863281 C 362.296875 203.980469 380.640625 192.347656 400.328125 184.964844 C 418.003906 178.25 436.683594 175.007812 455.367188 175.007812 C 493.0625 175.007812 530.648438 188.992188 560.179688 216.84375 C 561.296875 217.851562 562.304688 218.859375 563.425781 219.976562 C 564.542969 220.984375 565.550781 222.101562 566.554688 223.21875 C 593.960938 252.863281 607.945312 290.5625 607.945312 328.371094 Z M 607.945312 328.371094 " fill-opacity="1" fill-rule="nonzero"/></g><g clip-path="url(#af45fb319c)"><path fill="#fd4a08" d="M 321.691406 461.375 C 329.074219 468.757812 337.015625 475.46875 345.292969 481.398438 C 341.265625 481.734375 337.238281 481.84375 333.210938 481.84375 C 320.011719 481.84375 306.8125 480.167969 294.058594 476.8125 C 293.949219 476.8125 293.949219 476.8125 293.949219 476.8125 C 268.554688 470.101562 244.617188 456.898438 224.707031 436.988281 C 208.820312 421.105469 197.1875 402.757812 189.691406 383.070312 C 183.09375 365.507812 179.738281 346.941406 179.738281 328.371094 C 179.738281 290.449219 193.609375 252.75 221.574219 223.21875 C 222.578125 222.101562 223.699219 221.09375 224.707031 219.976562 C 225.710938 218.859375 226.832031 217.851562 227.949219 216.84375 C 257.480469 188.992188 295.289062 175.007812 333.210938 175.007812 C 337.238281 175.007812 341.265625 175.230469 345.292969 175.453125 C 345.070312 175.566406 344.957031 175.679688 344.734375 175.902344 C 336.679688 181.71875 328.960938 188.320312 321.691406 195.476562 C 297.414062 219.753906 281.082031 249.171875 272.917969 280.15625 C 272.917969 280.269531 272.804688 280.269531 272.804688 280.382812 C 268.667969 296.15625 266.542969 312.261719 266.542969 328.484375 C 266.542969 351.078125 270.570312 373.785156 278.734375 395.265625 C 287.90625 419.425781 302.226562 442.023438 321.691406 461.375 Z M 321.691406 461.375 " fill-opacity="1" fill-rule="nonzero"/></g><g clip-path="url(#999810401e)"><path fill="#fd4a08" d="M 607.945312 449.964844 C 607.945312 487.886719 594.074219 525.582031 566.109375 555.117188 C 565.101562 556.234375 563.984375 557.242188 562.976562 558.359375 C 561.859375 559.476562 560.851562 560.484375 559.734375 561.492188 C 530.199219 589.34375 492.390625 603.328125 454.582031 603.328125 C 450.554688 603.328125 446.417969 603.105469 442.390625 602.878906 C 450.667969 596.953125 458.609375 590.238281 465.992188 582.855469 C 490.265625 558.582031 506.484375 529.273438 514.765625 498.175781 C 514.765625 498.066406 514.875 498.066406 514.875 497.953125 C 516.441406 492.023438 517.671875 486.097656 518.679688 480.054688 C 519.351562 476.027344 519.796875 472.113281 520.246094 468.085938 C 520.804688 462.046875 521.140625 456.003906 521.140625 449.964844 C 521.140625 427.257812 517.113281 404.660156 508.945312 383.183594 C 504.359375 371.101562 498.542969 359.46875 491.386719 348.394531 C 484.226562 337.320312 475.835938 326.804688 466.214844 317.183594 C 458.832031 309.691406 450.890625 303.089844 442.5 297.160156 C 444.179688 297.050781 445.96875 296.9375 447.757812 296.824219 C 449.996094 296.714844 452.34375 296.714844 454.695312 296.714844 C 457.9375 296.714844 461.292969 296.824219 464.648438 297.050781 C 474.492188 297.71875 484.226562 299.285156 493.957031 301.859375 C 493.957031 301.859375 494.070312 301.859375 494.070312 301.859375 C 519.460938 308.570312 543.289062 321.769531 563.3125 341.683594 C 579.195312 357.566406 590.832031 375.910156 598.324219 395.601562 C 604.589844 412.828125 607.945312 431.394531 607.945312 449.964844 Z M 607.945312 449.964844 " fill-opacity="1" fill-rule="nonzero"/></g></svg>